<?xml version="1.0" encoding="utf-8"?>
<!-- Generator: Adobe Illustrator 21.0.2, SVG Export Plug-In . SVG Version: 6.00 Build 0)  -->
<svg version="1.1" id="Layer_1" xmlns="http://www.w3.org/2000/svg" xmlns:xlink="http://www.w3.org/1999/xlink" x="0px" y="0px"
	 viewBox="0 0 128 128" style="enable-background:new 0 0 128 128;" xml:space="preserve">
<style type="text/css">
	.st0{stroke:#ffffff;fill:#ffffff;stroke-width:0.8;}
</style>
<g id="widget_g3">
	<g id="_x30_1" transform="translate(-1216.000000, -623.000000)">
		<path id="Fill-1" class="st0" d="M1290.8,688.3c19.9-19.6,38.1-37.5,38.7-38.1c1.4-1.4,2.2-3.5,2.5-5.4c0.3-2.2-0.6-4.4-1.9-5.7
			c-1.4-1.4-3.6-2.2-5.8-1.9c-2.2,0-4.1,1.1-5.5,2.4c-0.6,0.5-18.8,18.5-38.7,38.1c-19.9-19.6-38.1-37.5-38.7-38.1
			c-1.4-1.4-3.6-2.2-5.5-2.4c-2.2-0.3-4.4,0.5-5.8,1.9c-1.4,1.4-2.2,3.5-1.9,5.7c0,2.2,1.1,4.1,2.5,5.4c0.6,0.5,18.8,18.5,38.7,38.1
			l-38.7,38.1c-1.4,1.4-2.2,3.5-2.5,5.4c-0.3,2.2,0.6,4.4,1.9,5.7c1.4,1.4,3.6,2.2,5.8,1.9c2.2,0,4.1-1.1,5.5-2.4
			c0.6-0.5,18.8-18.5,38.7-38.1c19.9,19.6,38.1,37.5,38.7,38.1c1.4,1.4,3.6,2.2,5.5,2.4c2.2,0.3,4.4-0.5,5.8-1.9
			c1.4-1.4,2.2-3.5,1.9-5.7c0-2.2-1.1-4.1-2.5-5.4C1328.9,725.8,1310.7,707.9,1290.8,688.3"/>
	</g>
</g>
</svg>
