<?xml version="1.0" encoding="utf-8"?>
<!-- Generator: Adobe Illustrator 21.0.2, SVG Export Plug-In . SVG Version: 6.00 Build 0)  -->
<svg version="1.1" id="Layer_1" xmlns="http://www.w3.org/2000/svg" xmlns:xlink="http://www.w3.org/1999/xlink" x="0px" y="0px"
	 viewBox="0 0 128 128" style="enable-background:new 0 0 128 128;" xml:space="preserve">
	<style type="text/css">
	#more{fill:#ffffff;}
	</style>
<g id="Symbols">
	<g id="header_new" transform="translate(-302.000000, -16.000000)">
		<g id="Group-4">
			<path id="more" d="M367,106.5c7,0,12.8,5.7,12.8,12.8S374,132,367,132s-12.8-5.7-12.8-12.8S360,106.5,367,106.5L367,106.5z
				 M367,93.8c-7,0-12.8-5.7-12.8-12.8S360,68.2,367,68.2S379.8,74,379.8,81S374,93.8,367,93.8L367,93.8z M367,55.5
				c-7,0-12.8-5.7-12.8-12.8S360,30,367,30s12.8,5.7,12.8,12.8S374,55.5,367,55.5L367,55.5z"/>
		</g>
	</g>
</g>
</svg>