<svg width="14" height="13" viewBox="0 0 14 13" fill="none" xmlns="http://www.w3.org/2000/svg">
<rect width="14" height="13" rx="2" fill="white"/>
<path d="M7.01405 8.7145C7.19992 8.713 7.37842 8.6416 7.51405 8.5145L10.8041 5.2145C10.941 5.08425 11.0186 4.90351 11.0186 4.7145C11.0186 4.52549 10.941 4.34475 10.8041 4.2145C10.6738 4.07754 10.4931 4 10.3041 4C10.115 4 9.93431 4.07754 9.80405 4.2145L7.01405 7.0145L4.21405 4.2245C4.0838 4.08754 3.90307 4.01 3.71405 4.01C3.52504 4.01 3.34431 4.08754 3.21405 4.2245C3.07709 4.35475 2.99955 4.53549 2.99955 4.7245C2.99955 4.91351 3.07709 5.09425 3.21405 5.2245L6.51405 8.5145C6.64969 8.6416 6.82818 8.713 7.01405 8.7145Z" fill="#12344D"/>
</svg>
